<svg xmlns="http://www.w3.org/2000/svg" width="3274.7815" height="512.0009"><path d="M174.096 89.4952c14.238-9.49 22.738-25.748 22.738-43.487 0-17.738-8.5-33.994-22.738-43.487-6.895-4.596-16.208-2.733-20.804 4.161-4.597 6.894-2.733 16.208 4.161 20.804 5.872 3.914 9.377 10.838 9.377 18.521 0 7.683-3.505 14.607-9.377 18.521-14.238 9.492-22.738 25.561-22.738 42.986 0 17.425 8.5 33.495 22.738 42.986 6.896 4.598 16.21 2.73 20.804-4.16 4.597-6.895 2.733-16.209-4.161-20.805-5.959-3.973-9.377-10.54-9.377-18.02-.001-7.478 3.418-14.047 9.377-18.02zm75.009 0c14.238-9.49 22.738-25.748 22.738-43.487 0-17.738-8.5-33.994-22.738-43.487-6.895-4.596-16.208-2.733-20.804 4.161-4.597 6.894-2.733 16.208 4.161 20.804 5.872 3.914 9.377 10.838 9.377 18.521 0 7.683-3.505 14.607-9.377 18.521-14.238 9.492-22.738 25.561-22.738 42.986 0 17.425 8.5 33.495 22.738 42.986 6.896 4.598 16.21 2.73 20.804-4.16 4.597-6.895 2.733-16.209-4.161-20.805-5.959-3.973-9.377-10.54-9.377-18.02 0-7.478 3.418-14.047 9.377-18.02zm75.01 0c14.238-9.49 22.738-25.748 22.738-43.487 0-17.738-8.5-33.994-22.738-43.487-6.894-4.596-16.208-2.733-20.804 4.161-4.597 6.894-2.733 16.208 4.161 20.804 5.872 3.914 9.377 10.838 9.377 18.521 0 7.683-3.505 14.607-9.377 18.521-14.238 9.492-22.738 25.561-22.738 42.986 0 17.425 8.5 33.495 22.738 42.986 6.896 4.598 16.21 2.73 20.804-4.16 4.597-6.895 2.733-16.209-4.161-20.805-5.959-3.973-9.377-10.54-9.377-18.02-.001-7.478 3.418-14.047 9.377-18.02zm155.949 279.083c0-27.344-18.71-51.302-45.044-57.986 1.287-34.168-26.928-63.085-61.861-62-9.641-37.396-52.014-56.42-86.563-37.844-11.217-13.735-28.268-22.193-46.564-22.193s-35.346 8.458-46.564 22.193c-34.487-18.543-76.901.367-86.563 37.844-35.001-1.087-63.299 27.97-61.85 62.26C19.263 317.4412 0 340.3422 0 368.5772c.003 32.381 25.522 58.192 57.174 59.558-3.364 28.96 8.005 55.285 30.767 70.858 22.487 15.387 53.424 18.282 81.212 2.373 46.373-26.496 95.393-26.495 141.75-.005 27.981 16.017 59.01 12.945 81.457-2.505 22.578-15.539 33.874-41.623 30.672-70.344 31.713-1.557 57.032-27.845 57.032-59.935zm-60.007 30.001l-.409-.004a26.577 26.577 0 0 0-20.534 9.141 26.566 26.566 0 0 0-6.238 21.575c2.921 18.825-3.466 35.171-17.524 44.847-13.662 9.403-32.145 11.132-49.552 1.176-28.054-16.03-56.904-24.045-85.762-24.045-28.857 0-57.718 8.017-85.778 24.05-17.442 9.981-35.881 8.144-49.375-1.09-14.018-9.59-20.45-25.838-17.648-44.575 2.477-16.554-10.339-31.469-27.094-31.469l-.294.001c-16.484 0-29.841-13.08-29.841-29.612.001-17.145 14.455-30.646 32.019-29.56 10.826.661 18.734-10.02 15.005-20.157-9.071-24.645 14.834-46.819 38.036-38.572a15.005 15.005 0 0 0 14.028-2.135c6.878-5.16 5.926-12.5 5.926-14.588 0-27.162 33.387-40.265 51.903-20.513 7.606 8.115 21.107 5.4 24.996-5.002 4.362-11.659 15.66-19.49 28.115-19.49 12.455 0 23.753 7.832 28.115 19.49 3.895 10.414 17.404 13.106 24.996 5.002 19.091-20.369 53.449-5.707 51.855 22.23-.623 10.71 9.903 18.598 20.002 15.006 23.15-8.228 46.987 13.797 38.051 38.436-3.674 10.125 4.241 20.758 15.033 20.09 17.485-1.094 31.976 12.528 31.976 29.764-.003 16.545-13.463 30.004-30.007 30.004z" data-original="#000000" class="active-path" data-old_color="#E62131" fill="#e0202f"/><path d="M387.926 350.7332c-35.424-45.375-90.016-72.166-147.89-72.166-57.922 0-112.497 26.83-147.889 72.166-5.101 6.53-3.939 15.957 2.591 21.056 6.533 5.101 15.96 3.934 21.058-2.593 30.077-38.529 75.362-60.626 124.239-60.626 48.878 0 94.161 22.097 124.239 60.626 5.097 6.53 14.524 7.694 21.058 2.594 6.53-5.099 7.691-14.526 2.594-21.057z" data-original="#000000" class="active-path" data-old_color="#E62131" fill="#e0202f"/><text style="line-height:1.25" x="555.5183" y="233.1717" font-weight="400" font-size="40" font-family="sans-serif" letter-spacing="0" word-spacing="0"/><path d="M826.8112 421.5795c.004-11.1828.3086-15.5193.6765-9.6366.368 5.8826.3645 15.0322-.008 20.3323-.372 5.3001-.6731.487-.669-10.6957z" fill="#fff"/><text style="line-height:1.25" x="567.2711" y="375.6666" font-weight="400" font-size="40" font-family="sans-serif" letter-spacing="0" word-spacing="0"><tspan x="567.2711" y="375.6666" style="-inkscape-font-specification:'Segoe UI Bold'" font-weight="700" font-size="325.3333" font-family="Segoe UI" fill="#fff">Мясное лукошко</tspan></text></svg>